<svg width="26" height="26" viewBox="0 0 26 26" fill="none" xmlns="http://www.w3.org/2000/svg">
<path d="M14.3059 6.59806C14.3059 6.19499 14.4619 5.79864 14.7284 5.51903L17.6859 2.39902C17.9329 2.13902 17.92 1.72306 17.66 1.47595C17.4 1.22901 16.9905 1.24192 16.7434 1.50192L13.7859 4.62192C13.344 5.09 13.0775 5.69442 13.019 6.33789L14.3059 7.69635L14.3059 6.59806Z" fill="black"/>
<path d="M16.048 8.47668H15.047L16.2689 9.76361C16.9124 9.71167 17.517 9.41264 17.972 8.93804L20.9295 5.81804C21.1764 5.55804 21.1635 5.14861 20.9035 4.9015C20.6435 4.65456 20.2341 4.66094 19.987 4.92747L17.0295 8.04093C16.763 8.32052 16.4184 8.47662 16.0479 8.47662L16.048 8.47668Z" fill="black"/>
<path d="M15.8385 6.82685C16.099 7.07321 16.5099 7.06277 16.7576 6.80146L19.307 4.10716C19.5533 3.84658 19.5423 3.43509 19.2816 3.18802C19.0216 2.94166 18.6101 2.9521 18.3624 3.21341L15.8131 5.90772C15.5668 6.16917 15.5771 6.58063 15.8385 6.82685Z" fill="black"/>
<path d="M8.13726 12.071L4.64668 15.7501C3.88611 16.5495 3.78861 17.7066 4.42571 18.3826C4.80918 18.8292 5.27781 19.307 5.92725 19.2732C6.46668 19.2732 7.01282 19.0197 7.42879 18.5776L11.3871 14.4046C10.5421 14.2031 9.71653 13.7352 9.03403 13.0136L8.13726 12.071Z" fill="black"/>
<path d="M21.6357 16.3792L7.54297 1.5039C7.29922 1.23534 6.8416 1.23534 6.59858 1.50448L4.8591 3.34725C3.77617 4.68684 4.018 6.77338 5.4187 8.25791L9.50181 12.5672C10.7095 13.8418 12.4307 14.2143 13.6826 13.554L18.9502 19.1094C19.4201 19.632 20.2892 19.6242 20.7605 19.1068L21.6314 18.1877C22.114 17.6794 22.1153 16.8845 21.6355 16.3788L21.6357 16.3792Z" fill="black"/>
</svg>
